<svg width="170" height="100" xmlns="http://www.w3.org/2000/svg"><path fill-rule="evenodd" clip-rule="evenodd" d="M5 2h160a3 3 0 013 3v90a3 3 0 01-3 3H5a3 3 0 01-3-3V5a3 3 0 013-3zM0 5a5 5 0 015-5h160a5 5 0 015 5v90a5 5 0 01-5 5H5a5 5 0 01-5-5V5zm52 23c0 8.837-7.163 16-16 16s-16-7.163-16-16 7.163-16 16-16 16 7.163 16 16zm13-14a2 2 0 012-2h81a2 2 0 012 2v6a2 2 0 01-2 2H67a2 2 0 01-2-2v-6zm2 12a2 2 0 00-2 2v4a2 2 0 002 2h53a2 2 0 002-2v-4a2 2 0 00-2-2H67zm-2 12a2 2 0 012-2h31a2 2 0 012 2v4a2 2 0 01-2 2H67a2 2 0 01-2-2v-4zM36 88c8.837 0 16-7.163 16-16s-7.163-16-16-16-16 7.163-16 16 7.163 16 16 16zm29-30a2 2 0 012-2h81a2 2 0 012 2v6a2 2 0 01-2 2H67a2 2 0 01-2-2v-6zm2 12a2 2 0 00-2 2v4a2 2 0 002 2h53a2 2 0 002-2v-4a2 2 0 00-2-2H67zm-2 12a2 2 0 012-2h31a2 2 0 012 2v4a2 2 0 01-2 2H67a2 2 0 01-2-2v-4z"/></svg>