<svg width="130" height="76" viewBox="0 0 130 76" fill="none" xmlns="http://www.w3.org/2000/svg">
<path fill-rule="evenodd" clip-rule="evenodd" d="M16 32C24.8366 32 32 24.8366 32 16C32 7.16344 24.8366 0 16 0C7.16344 0 0 7.16344 0 16C0 24.8366 7.16344 32 16 32ZM47 0C45.8954 0 45 0.895432 45 2V8C45 9.10457 45.8954 10 47 10H128C129.105 10 130 9.10457 130 8V2C130 0.895432 129.105 0 128 0H47ZM45 16C45 14.8954 45.8954 14 47 14H100C101.105 14 102 14.8954 102 16V20C102 21.1046 101.105 22 100 22H47C45.8954 22 45 21.1046 45 20V16ZM47 24C45.8954 24 45 24.8954 45 26V30C45 31.1046 45.8954 32 47 32H78C79.1046 32 80 31.1046 80 30V26C80 24.8954 79.1046 24 78 24H47ZM32 60C32 68.8366 24.8366 76 16 76C7.16344 76 0 68.8366 0 60C0 51.1634 7.16344 44 16 44C24.8366 44 32 51.1634 32 60ZM47 44C45.8954 44 45 44.8954 45 46V52C45 53.1046 45.8954 54 47 54H128C129.105 54 130 53.1046 130 52V46C130 44.8954 129.105 44 128 44H47ZM45 60C45 58.8954 45.8954 58 47 58H100C101.105 58 102 58.8954 102 60V64C102 65.1046 101.105 66 100 66H47C45.8954 66 45 65.1046 45 64V60ZM47 68C45.8954 68 45 68.8954 45 70V74C45 75.1046 45.8954 76 47 76H78C79.1046 76 80 75.1046 80 74V70C80 68.8954 79.1046 68 78 68H47Z" fill="#E5E5E5"/>
</svg>
