<svg width="130" height="76" viewBox="0 0 130 76" fill="none" xmlns="http://www.w3.org/2000/svg">
<path fill-rule="evenodd" clip-rule="evenodd" d="M0 2C0 0.895432 0.895432 0 2 0H36C37.1046 0 38 0.895432 38 2V36C38 37.1046 37.1046 38 36 38H2C0.895432 38 0 37.1046 0 36V2ZM2 44C0.895432 44 0 44.8954 0 46V52C0 53.1046 0.895432 54 2 54H58C59.1046 54 60 53.1046 60 52V46C60 44.8954 59.1046 44 58 44H2ZM2 58C0.895432 58 0 58.8954 0 60V64C0 65.1046 0.895432 66 2 66H38.2353C39.3399 66 40.2353 65.1046 40.2353 64V60C40.2353 58.8954 39.3399 58 38.2353 58H2ZM0 70C0 68.8954 0.895432 68 2 68H22.7059C23.8105 68 24.7059 68.8954 24.7059 70V74C24.7059 75.1046 23.8105 76 22.7059 76H2C0.895432 76 0 75.1046 0 74V70ZM72 44C70.8954 44 70 44.8954 70 46V52C70 53.1046 70.8954 54 72 54H128C129.105 54 130 53.1046 130 52V46C130 44.8954 129.105 44 128 44H72ZM70 60C70 58.8954 70.8954 58 72 58H108.235C109.34 58 110.235 58.8954 110.235 60V64C110.235 65.1046 109.34 66 108.235 66H72C70.8954 66 70 65.1046 70 64V60ZM72 68C70.8954 68 70 68.8954 70 70V74C70 75.1046 70.8954 76 72 76H92.7059C93.8105 76 94.7059 75.1046 94.7059 74V70C94.7059 68.8954 93.8105 68 92.7059 68H72ZM72 0C70.8954 0 70 0.895432 70 2V36C70 37.1046 70.8954 38 72 38H106C107.105 38 108 37.1046 108 36V2C108 0.895432 107.105 0 106 0H72Z" fill="#E5E5E5"/>
</svg>
