<svg width="48" height="35" viewBox="0 0 48 35" fill="none" xmlns="http://www.w3.org/2000/svg">
<path fill-rule="evenodd" clip-rule="evenodd" d="M4.19744 16.8878V17.4631C7.5 17.8253 9.18324 19.5085 9.18324 22.5767V26.2969C9.18324 29.5781 10.3338 30.8779 13.2315 30.8779H14.1051V34.4148H12.7841C7.30824 34.4148 4.81534 32.0284 4.81534 26.8296V24.0256C4.81534 20.7017 3.57955 19.5511 0 19.5511V14.821C3.57955 14.821 4.81534 13.6705 4.81534 10.3466V7.56392C4.81534 2.38636 7.28694 0 12.7841 0H14.1051V3.55824H13.2315C10.3338 3.55824 9.18324 4.85796 9.18324 8.1179V11.7955C9.18324 14.8636 7.5 16.5469 4.19744 16.8878ZM24.0003 28.3636C30.0252 28.3636 34.9094 23.4795 34.9094 17.4545C34.9094 11.4296 30.0252 6.54543 24.0003 6.54543C17.9753 6.54543 13.0912 11.4296 13.0912 17.4545C13.0912 23.4795 17.9753 28.3636 24.0003 28.3636ZM43.2915 16.9943V17.6122C39.8398 17.9744 38.05 19.7216 38.05 22.7898V26.169C38.05 29.3225 36.9633 30.5369 34.1508 30.5369H33.2346V34.5213H34.6622C40.5216 34.5213 43.0784 32.135 43.0784 26.7869V24.3239C43.0784 21.0852 44.3994 19.9347 48.0003 19.9134V14.6719C44.3781 14.6506 43.0784 13.5 43.0784 10.2614V7.77699C43.0784 2.40767 40.5216 0 34.6622 0H33.2346V3.96307H34.1508C36.942 3.96307 38.05 5.19887 38.05 8.35228V11.7955C38.05 14.8636 39.8398 16.6108 43.2915 16.9943ZM24.0002 24C27.6152 24 30.5457 21.0695 30.5457 17.4546C30.5457 13.8396 27.6152 10.9091 24.0002 10.9091C20.3853 10.9091 17.4548 13.8396 17.4548 17.4546C17.4548 21.0695 20.3853 24 24.0002 24Z" fill="#80C2ED"/>
</svg>
