<svg width="11" height="14" viewBox="0 0 11 14" fill="none" xmlns="http://www.w3.org/2000/svg">
<path d="M9 0H10C10.5523 0 11 0.447715 11 1V7C11 7.55228 10.5523 8 10 8H9V0Z" fill="black"/>
<path d="M5 8H7V13C7 13.5523 6.55228 14 6 14H5V8Z" fill="black"/>
<rect y="5" width="10" height="1" fill="#A259FF"/>
<path fill-rule="evenodd" clip-rule="evenodd" d="M10 6H0V7C0 7.55228 0.447715 8 1 8H4V13C4 13.5523 4.44772 14 5 14C5.55228 14 6 13.5523 6 13V8H9C9.55229 8 10 7.55228 10 7V6Z" fill="#0ACF83"/>
<rect x="1" y="5" width="2" height="1" fill="#1ABCFE"/>
<rect x="7" y="2" width="3" height="3" fill="#FF7262"/>
<rect x="4" y="3" width="2" height="2" fill="#FF7262"/>
<rect x="6" y="4" width="1" height="1" fill="#FF7262"/>
<rect x="2" y="4" width="2" height="1" fill="#FF7262"/>
<path fill-rule="evenodd" clip-rule="evenodd" d="M1 0C0.447715 0 0 0.447715 0 1V5H10V1C10 0.447715 9.55228 0 9 0H3V2H2V0H1Z" fill="#F24E1E"/>
</svg>
